<?xml version="1.0" encoding="UTF-8" standalone="no"?>
<svg
   xmlns="http://www.w3.org/2000/svg"
   version="1.1"
   viewBox="0 0 180 180">
  <g>
    <path
       style="fill:#dc1e34"
       d="m 82.161854,126.60142 c 1.954997,-1.87301 5.248406,-5.02717 7.203403,-6.90018 24.117783,27.99531 57.981283,10.70378 58.461223,-17.75092 C 148.1841,80.747894 117.44251,51.666387 85.381558,89.150033 L 78.219172,82.67486 c 29.835438,-39.978535 79.947918,-18.514036 79.800678,20.62131 -0.15393,40.91456 -52.17922,54.75007 -75.857996,23.30525 z m 12.852517,-12.60061 c 1.895982,-1.97897 4.878574,-4.89931 6.774549,-6.87829 10.20679,12.79878 27.40559,11.41857 28.29165,-4.17276 0.78955,-13.893173 -15.96473,-17.78123 -23.46355,-10.177319 -2.43916,-2.065219 -4.76594,-3.854093 -7.009816,-6.858306 14.589506,-14.745899 41.131776,-3.710742 40.237886,15.977015 -1.29815,28.59175 -35.16488,29.63647 -44.830719,12.10966 z m 2.636483,-60.328759 -6.381699,6.958218 C 66.972348,31.746575 33.183748,51.543452 32.638941,77.437021 32.12366,101.92726 64.528078,127.66051 94.989565,90.781153 c 1.989697,1.906249 4.829655,4.829708 6.819355,6.735958 C 71.076387,136.9847 21.929951,115.77172 22.422812,77.729155 22.882681,42.233258 68.257483,18.577278 97.650854,53.672051 Z M 40.195273,77.651268 C 41.580931,51.331308 72.67507,47.687879 84.790825,66.447683 L 78.01313,73.3226 c -11.968444,-17.189419 -27.939907,-7.53682 -28.0159,4.0205 -0.05412,8.230549 9.902983,20.977253 23.520451,9.85152 2.430084,1.753633 4.678063,4.848904 6.856602,6.663557 C 64.285575,110.09179 39.15895,97.335769 40.195273,77.651268 Z"
       ></path>
  </g>
</svg>
